<svg xmlns="http://www.w3.org/2000/svg" viewBox="0 0 233 233"><defs><style>.cls-1,.cls-2,.cls-3,.cls-4{fill:none;stroke:#30302d;stroke-miterlimit:10;stroke-width:3px;}.cls-2,.cls-3,.cls-4{stroke-linecap:round;}.cls-3{stroke-dasharray:10.29 10.29;}.cls-4{stroke-dasharray:9.51 9.51;}</style></defs><g id="Layer_2" data-name="Layer 2"><g id="Layer_1-2" data-name="Layer 1"><path class="cls-1" d="M172.58,79.3c.41-.17.83-.32,1.25-.47,19.24-6.7,35.11,13.31,26.93,32-11.06,25.25-36.89,37.31-47.89,38.87"/><path class="cls-1" d="M140.74,80.57l-27,26.93L90.66,130.55l-13.53,13.5c-1.36-1.81-2.67-3.67-3.93-5.55C62.78,123,59.82,79.83,59.82,79.83s-.1-.59.57-.54a1.05,1.05,0,0,1,.33.06c14.19,4.34,30.48,5.32,41.3-4.79.55-.51,1.1-1,1.67-1.59A18.18,18.18,0,0,1,129,73c.56.54,1.12,1.07,1.67,1.58A27.82,27.82,0,0,0,140.74,80.57Z"/><path class="cls-1" d="M172.85,79.83c0,.5-3.44,42.29-12.41,58.67-9.31,17-24.88,29.73-44.11,29.71-11,0-20.22-4.72-28.08-11.76l22.67-22.63,28.26-28.2,24.2-24.16A77.83,77.83,0,0,0,172,79.35C172.34,79.24,172.85,79.33,172.85,79.83Z"/><path class="cls-1" d="M73.26,147.91c-12.61-4.36-31.86-16.22-41-37.11-8.18-18.66,7.69-38.67,26.93-32,.41.15.82.29,1.22.46h0"/><path class="cls-1" d="M90.66,130.55a77.72,77.72,0,0,1-8.67-3.1"/><path class="cls-1" d="M110.92,133.82a82,82,0,0,0,35.2-6.37"/><path class="cls-1" d="M113.75,107.5a159.73,159.73,0,0,1-39.88-5"/><path class="cls-1" d="M154.24,102.53a144.37,144.37,0,0,1-15.06,3.09"/><path class="cls-2" d="M157.69,40.46c-1.43-.78-2.89-1.51-4.37-2.21"/><path class="cls-3" d="M143.77,34.43A86.58,86.58,0,0,0,53.88,56.88"/><path class="cls-2" d="M50.45,60.71c-1.06,1.25-2.08,2.52-3.06,3.83"/><path class="cls-2" d="M81.87,195.75c1.5.65,3,1.27,4.55,1.84"/><path class="cls-4" d="M95.5,200.39a86.6,86.6,0,0,0,94.66-38.59"/><path class="cls-2" d="M192.54,157.68q1.17-2.15,2.22-4.38"/><path class="cls-1" d="M194.39,50.52l-31,30.94-24.2,24.16-28.26,28.2L88.25,156.45l-37.88,37.8a102.08,102.08,0,0,0,144-143.73ZM116.5,14.43a102.07,102.07,0,0,0-77.88,168l34.64-34.57,3.87-3.86,13.53-13.5,23.09-23.05,27-26.93,41.89-41.81A101.64,101.64,0,0,0,116.5,14.43Zm77.89,36.09-31,30.94-24.2,24.16-28.26,28.2L88.25,156.45l-37.88,37.8a102.08,102.08,0,0,0,144-143.73ZM77.13,144.05l13.53-13.5,23.09-23.05,27-26.93,41.89-41.81a102.07,102.07,0,0,0-144,143.72l34.64-34.57Z"/><path class="cls-1" d="M203.56,41.37A115,115,0,1,0,29.44,191.64a116.57,116.57,0,0,0,11.75,11.77,115,115,0,0,0,162.37-162ZM38.62,182.48a102.07,102.07,0,0,1,144-143.72L140.74,80.57l-27,26.93L90.66,130.55l-13.53,13.5-3.87,3.86Zm77.88,36.09a101.63,101.63,0,0,1-66.13-24.32l37.88-37.8,22.67-22.63,28.26-28.2,24.2-24.16,31-30.94a102.08,102.08,0,0,1-77.89,168Z"/></g></g></svg>