<svg xmlns="http://www.w3.org/2000/svg" viewBox="0 0 227.58 222.89"><defs><style>.cls-1{fill:none;stroke:#30302d;stroke-miterlimit:10;stroke-width:3px;}.cls-2{fill:#30302d;}</style></defs><g id="Layer_2" data-name="Layer 2"><g id="Layer_1-2" data-name="Layer 1"><path class="cls-1" d="M186.29,186l-35.12,21.7c-10.5,7.13-22.6,9.28-38.12,6.79-3.46-.56-6.86-1.31-10.12-2.14s-6.36-1.72-9.2-2.57l-10.54-3.17a56.79,56.79,0,0,0-7.49-1.72c-.59-.1-1.28-.18-2-.25a56.75,56.75,0,0,0-14.84.54L42.17,207.9l-7.36-48.68c10.37-1.72,39.42-6.52,42.16-6.64a117.43,117.43,0,0,1,12.72-.11c1.45.09,2.88.24,4.29.47a26.76,26.76,0,0,1,11.38,4.36l3.55,2.57.06,0,29.59,21.44,39-14.2a10.62,10.62,0,0,1,4.54-.27,9.6,9.6,0,0,1,3,1,10.75,10.75,0,0,1,3.87,3.26,10,10,0,0,1,1.88,4.55A10.57,10.57,0,0,1,186.29,186Z"/><path class="cls-1" d="M87.51,178.18l38.83,19.61a10.56,10.56,0,0,0,3.09,1,10.55,10.55,0,0,0,11.3-6.22A10.55,10.55,0,0,0,139,181.46"/><polygon class="cls-1" points="43.28 215.25 17.25 221.1 1.82 157.22 33.46 150.33 34.81 159.22 42.17 207.9 43.28 215.25"/><circle class="cls-1" cx="21.19" cy="164.62" r="4.86"/><path class="cls-1" d="M161,77.87H130.31a8.28,8.28,0,0,1-8.12-6.66h0a8.28,8.28,0,0,1,8.12-9.9H161a8.28,8.28,0,0,1,8.13,9.9h0A8.3,8.3,0,0,1,161,77.87Z"/><path class="cls-1" d="M207.38,221.26V46.39a26.19,26.19,0,0,0-52.38,0V61.31H136.3V46.39a44.89,44.89,0,0,1,89.78,0V221.26Z"/><line class="cls-1" x1="145.65" y1="105.64" x2="145.65" y2="87.49"/><line class="cls-1" x1="132.59" y1="85.39" x2="125.7" y2="101.58"/><line class="cls-1" x1="164.68" y1="101.96" x2="158.08" y2="85.58"/><path class="cls-1" d="M185.16,167.19c0,.21-.07.43-.12.64a9.6,9.6,0,0,0-3-1,10.62,10.62,0,0,0-4.54.27l-39,14.2L109,159.9l-.06,0-3.55-2.57A26.76,26.76,0,0,0,94,152.94c-1.41-.23-2.84-.38-4.29-.47a16.55,16.55,0,0,1,18.36-13.78,24.39,24.39,0,0,1,.17-6A24.12,24.12,0,0,1,155,128.9a18.44,18.44,0,0,1,2.55.18,17.88,17.88,0,0,1,15,20.37,18.25,18.25,0,0,1-.62,2.6,13.55,13.55,0,0,1,2.19.13A13.17,13.17,0,0,1,185.16,167.19Z"/><path class="cls-1" d="M118.51,126a18.48,18.48,0,0,1,17.25-6.78"/><path class="cls-1" d="M157.41,136.47a14.19,14.19,0,0,1,7.91,11.86"/><path class="cls-2" d="M51.6,58.73H16.86V50.22L28.55,38.4q5-5.25,6.55-7.16A15.3,15.3,0,0,0,37.24,28a7,7,0,0,0,.61-2.88,3.74,3.74,0,0,0-1.21-2.95A5,5,0,0,0,33.23,21a9.27,9.27,0,0,0-4.56,1.29,33.23,33.23,0,0,0-5.23,3.82l-7.1-8.32a38.35,38.35,0,0,1,6.22-4.73A22.17,22.17,0,0,1,28,10.92a27.26,27.26,0,0,1,6.67-.75A20,20,0,0,1,43,11.81a13,13,0,0,1,5.66,4.66,12,12,0,0,1,2,6.8,18.31,18.31,0,0,1-.71,5.2,18.09,18.09,0,0,1-2.18,4.7A32.41,32.41,0,0,1,43.89,38q-2.43,2.55-10.39,9.69v.33H51.6Z"/><path class="cls-2" d="M91.1,34.86q0,12.7-4.26,18.62t-13,5.91q-8.58,0-12.94-6.18T56.52,34.86q0-12.78,4.25-18.73t13-6q8.53,0,12.91,6.2T91.1,34.86Zm-21.72,0q0,8.12,1,11.17c.68,2,1.81,3,3.41,3s2.75-1,3.42-3.14,1-5.79,1-11.07-.34-9-1-11.15-1.81-3.19-3.4-3.19-2.73,1-3.41,3.07S69.38,29.4,69.38,34.86Z"/><path class="cls-2" d="M37.32,102.27a10.32,10.32,0,0,1-1.65,5.78A10.83,10.83,0,0,1,30.91,112a17.7,17.7,0,0,1-7.3,1.4,30,30,0,0,1-5.86-.49,22.13,22.13,0,0,1-4.93-1.71v-8.43a28,28,0,0,0,5.62,2.17,20.9,20.9,0,0,0,5.36.78,5.25,5.25,0,0,0,3.09-.73,2.27,2.27,0,0,0,1-1.88,2.1,2.1,0,0,0-.39-1.26,4.79,4.79,0,0,0-1.27-1.09c-.58-.36-2.14-1.11-4.66-2.25a22.19,22.19,0,0,1-5.13-3,9.25,9.25,0,0,1-2.54-3.35,11.13,11.13,0,0,1-.82-4.48,8.94,8.94,0,0,1,3.52-7.53q3.51-2.72,9.66-2.71a27.2,27.2,0,0,1,11.08,2.51l-2.89,7.3A21,21,0,0,0,26,85a4.4,4.4,0,0,0-2.68.65,1.94,1.94,0,0,0-.84,1.6,2.33,2.33,0,0,0,1.06,1.85,40.71,40.71,0,0,0,5.78,3c3,1.36,5.11,2.81,6.28,4.37A9.42,9.42,0,0,1,37.32,102.27Z"/><path class="cls-2" d="M63.5,112.9H42.73v-35H63.5V85.5H52.18V91H62.67v7.59H52.18v6.6H63.5Z"/><path class="cls-2" d="M85.21,85.16a6,6,0,0,0-5.27,2.77,13.33,13.33,0,0,0-1.89,7.62q0,10.1,7.68,10.1a15.75,15.75,0,0,0,4.5-.65c1.45-.43,2.91-1,4.38-1.55v8a24.27,24.27,0,0,1-9.91,1.94q-7.92,0-12.14-4.6T68.34,95.5a21.27,21.27,0,0,1,2-9.55,14.73,14.73,0,0,1,5.89-6.33,17.82,17.82,0,0,1,9-2.21,24.78,24.78,0,0,1,10.84,2.47l-2.89,7.44a31.19,31.19,0,0,0-3.88-1.53A13.38,13.38,0,0,0,85.21,85.16Z"/></g></g></svg>