<svg xmlns="http://www.w3.org/2000/svg" viewBox="0 0 188.87 231.5"><defs><style>.cls-1{fill:none;stroke:#30302d;stroke-miterlimit:10;stroke-width:3px;}.cls-2{fill:#30302d;}</style></defs><g id="Layer_2" data-name="Layer 2"><g id="Layer_1-2" data-name="Layer 1"><path class="cls-1" d="M187.05,178.48a3.05,3.05,0,0,1-3.17,2.91l-.3,0,1.06,11c-2,.62-3.9,1.14-5.85,1.56a58.42,58.42,0,0,1-9.63,1.3c-1.53.07-3.07.09-4.59,0a56.62,56.62,0,0,1-9.6-1.12,60.88,60.88,0,0,1-6.77-1.79l1-10.69a2.17,2.17,0,0,1-.71.13,3.06,3.06,0,0,1-3.18-2.91c-.26-5.79-.68-18.35.31-24.08,1.3-7.47,4.48-14.74,9.79-20.15a.14.14,0,0,1,.06-.07c2.4-2.93,6.41-4.22,10.92-4.22a15.67,15.67,0,0,1,8.89,2.35,9.79,9.79,0,0,1,2.11,1.95.05.05,0,0,1,0,0,38.24,38.24,0,0,1,9.3,19.64C187.74,160.13,187.32,172.69,187.05,178.48Z"/><path class="cls-1" d="M149.23,181.72a3.08,3.08,0,0,0,2.14-2.52c1.29-11.1.7-26.06,4.78-30.49"/><path class="cls-1" d="M176.73,148.71c4.08,4.43,3.5,19.39,4.78,30.49a3.08,3.08,0,0,0,2.14,2.52"/><path class="cls-1" d="M155.67,134.46l-.17.18"/><path class="cls-1" d="M177.42,134.72c-.22-.24-.46-.48-.69-.72"/><circle class="cls-1" cx="166.42" cy="117.62" r="12.8"/><path class="cls-1" d="M164.57,195.32,162.73,230h-5.86L155,194.2A56.62,56.62,0,0,0,164.57,195.32Z"/><path class="cls-1" d="M178.79,194l-1.91,36H171l-1.85-34.73A58.42,58.42,0,0,0,178.79,194Z"/><path class="cls-1" d="M21.94,184.57l-4,45.43H11.86l-1.59-48.15C14.42,184.24,18.18,184.51,21.94,184.57Z"/><path class="cls-1" d="M37.23,181.85,35.64,230H29.58l-4-45.43C29.27,184.49,33.14,184.19,37.23,181.85Z"/><path class="cls-1" d="M45.7,184.5a3.16,3.16,0,0,1-4,2.88c-2.63-.67-2.9-2-2.78-6.24a.17.17,0,0,0-.27-.16c-.47.32-.94.61-1.4.87-4.09,2.34-8,2.64-11.68,2.72l-1.94,0-1.67,0c-3.76-.06-7.52-.33-11.67-2.72-.46-.26-.92-.55-1.39-.87a.17.17,0,0,0-.26.16c.12,4.2-.15,5.57-2.78,6.24a3.16,3.16,0,0,1-4-2.88C1,169.26,2,151.36,3.48,144.22a16.19,16.19,0,0,1,15.76-12.87l4.52,0,4.52,0A16.19,16.19,0,0,1,44,144.22C45.52,151.36,46.57,169.26,45.7,184.5Z"/><path class="cls-1" d="M6.38,187.22a2.71,2.71,0,0,0,2.1-2.42c.66-7.82-.9-35.07,3.12-39.82"/><path class="cls-1" d="M36,145c4,4.75,2.46,32,3.12,39.82a2.71,2.71,0,0,0,2.1,2.42"/><circle class="cls-1" cx="23.61" cy="118.05" r="13.23"/><path class="cls-1" d="M93.34,93.05l-4,45.43H83.25L81.66,90.33C85.82,92.73,89.58,93,93.34,93.05Z"/><path class="cls-1" d="M108.63,90.34,107,138.48H101L97,93.05C100.67,93,104.54,92.68,108.63,90.34Z"/><path class="cls-1" d="M117.1,93a3.16,3.16,0,0,1-4,2.88c-2.64-.67-2.9-2-2.78-6.24a.17.17,0,0,0-.27-.15c-.47.32-.94.61-1.4.87-4.09,2.34-8,2.63-11.68,2.71l-1.94,0-1.67,0c-3.76-.06-7.52-.32-11.68-2.72-.46-.26-.92-.55-1.38-.86a.16.16,0,0,0-.26.15c.12,4.21-.15,5.57-2.78,6.24a3.15,3.15,0,0,1-4-2.88c-.87-15.24.17-33.14,1.66-40.28A16.19,16.19,0,0,1,90.63,39.83l4.53,0,4.52,0A16.2,16.2,0,0,1,115.44,52.7C116.92,59.84,118,77.74,117.1,93Z"/><path class="cls-1" d="M77.78,95.7a2.69,2.69,0,0,0,2.1-2.42c.66-7.82-.9-35.07,3.12-39.82"/><path class="cls-1" d="M107.37,53.46c4,4.75,2.46,32,3.12,39.82a2.69,2.69,0,0,0,2.1,2.42"/><circle class="cls-1" cx="95.01" cy="26.53" r="13.23"/><path class="cls-1" d="M114.31,166,69.7,210.59A31.86,31.86,0,0,1,114.31,166Z"/><path class="cls-1" d="M127,191.42a31.86,31.86,0,0,1-51,25.45l44.61-44.61A31.72,31.72,0,0,1,127,191.42Z"/><path class="cls-1" d="M95.15,152.85a38.58,38.58,0,1,0,38.58,38.57A38.57,38.57,0,0,0,95.15,152.85ZM64.84,191.42a30.31,30.31,0,0,1,48.54-24.2L70.94,209.66A30.18,30.18,0,0,1,64.84,191.42Zm30.31,30.31a30.18,30.18,0,0,1-18.24-6.1l42.44-42.44a30.31,30.31,0,0,1-24.2,48.54Z"/><path class="cls-2" d="M53.11,32.56a1.31,1.31,0,0,0-1.48-.28,5.48,5.48,0,0,0-.49-.35,1.82,1.82,0,0,0-3.09-1.6,1.88,1.88,0,0,0-.46.76,6.23,6.23,0,0,0-1.33.3.84.84,0,0,0-.15-.18,1.56,1.56,0,0,0-2.38,2A5.68,5.68,0,0,0,43,34.43a1.36,1.36,0,0,0-1.41.31,1.34,1.34,0,0,0,0,1.89,1.36,1.36,0,0,0,1,.4,5.85,5.85,0,0,0,.34,1.64l-.12.11a1.33,1.33,0,0,0,1.62,2.09,5.77,5.77,0,0,0,1.54,1,1.89,1.89,0,0,0,3.78.25,5.84,5.84,0,0,0,1.36-.59,1.56,1.56,0,0,0,2.08-2.2,5.41,5.41,0,0,0,.52-1.46,1.34,1.34,0,0,0-.08-2.67,5,5,0,0,0-.33-.89A1.33,1.33,0,0,0,53.11,32.56Z"/><path class="cls-2" d="M71.19,5.51a1.28,1.28,0,0,0-1.43-.27c-.16-.12-.31-.23-.47-.33a1.79,1.79,0,0,0-.49-1.55,1.77,1.77,0,0,0-2.49,0,1.74,1.74,0,0,0-.45.74,5.78,5.78,0,0,0-1.28.29,1.19,1.19,0,0,0-.15-.18,1.5,1.5,0,0,0-2.29,1.93,5.52,5.52,0,0,0-.71,1.18A1.29,1.29,0,1,0,61,9.82a5.37,5.37,0,0,0,.33,1.58l-.12.11a1.29,1.29,0,0,0,1.57,2,5.33,5.33,0,0,0,1.48,1,1.83,1.83,0,0,0,3.65.24,5.6,5.6,0,0,0,1.31-.57,1.5,1.5,0,0,0,2-2.11,5.68,5.68,0,0,0,.51-1.41,1.29,1.29,0,0,0-.08-2.58,5.58,5.58,0,0,0-.32-.86A1.31,1.31,0,0,0,71.19,5.51Z"/><path class="cls-2" d="M122.6,2.66a1.32,1.32,0,0,0-1.43-.27,5,5,0,0,0-.47-.33,1.74,1.74,0,0,0-.49-1.54,1.77,1.77,0,0,0-2.49,0,1.8,1.8,0,0,0-.44.75,5.22,5.22,0,0,0-1.29.28,1.19,1.19,0,0,0-.15-.18,1.51,1.51,0,0,0-2.29,1.94,5.23,5.23,0,0,0-.71,1.17,1.29,1.29,0,0,0-1.36,2.13,1.28,1.28,0,0,0,.91.37,5.45,5.45,0,0,0,.34,1.59l-.13.1a1.3,1.3,0,0,0,0,1.83,1.29,1.29,0,0,0,1.57.19,5.37,5.37,0,0,0,1.48,1A1.83,1.83,0,0,0,118.77,13a1.78,1.78,0,0,0,.53-1.12,5.26,5.26,0,0,0,1.31-.57,1.51,1.51,0,0,0,1.79-.26,1.49,1.49,0,0,0,.21-1.86,5.19,5.19,0,0,0,.51-1.41,1.22,1.22,0,0,0,.81-.37,1.27,1.27,0,0,0,0-1.82,1.24,1.24,0,0,0-.89-.38,5.33,5.33,0,0,0-.32-.87A1.28,1.28,0,0,0,122.6,2.66Z"/><path class="cls-2" d="M143,33.07a1.53,1.53,0,0,0-1.7-.32c-.18-.14-.36-.27-.55-.39a2.1,2.1,0,0,0-3.55-1.84,2,2,0,0,0-.52.88,6.26,6.26,0,0,0-1.53.34,1.24,1.24,0,0,0-.18-.22,1.79,1.79,0,0,0-2.72,2.3,6.12,6.12,0,0,0-.84,1.4,1.55,1.55,0,0,0-1.62.35,1.54,1.54,0,0,0,1.08,2.62,6.38,6.38,0,0,0,.4,1.88l-.15.13A1.53,1.53,0,0,0,133,42.6a6.56,6.56,0,0,0,1.77,1.13,2.1,2.1,0,0,0,.63,1.62,2.18,2.18,0,0,0,3.07,0,2.13,2.13,0,0,0,.63-1.34,6.54,6.54,0,0,0,1.56-.68,1.78,1.78,0,0,0,2.13-.3,1.8,1.8,0,0,0,.25-2.22,6.3,6.3,0,0,0,.6-1.67,1.45,1.45,0,0,0,1-.44,1.53,1.53,0,0,0,0-2.17,1.58,1.58,0,0,0-1.06-.45,7.35,7.35,0,0,0-.38-1A1.55,1.55,0,0,0,143,33.07Z"/><path class="cls-1" d="M21.07,96a72.55,72.55,0,0,1,13.66-42.5"/><path class="cls-1" d="M153.36,53.49A72.62,72.62,0,0,1,167,96"/></g></g></svg>