<svg xmlns="http://www.w3.org/2000/svg" viewBox="0 0 191.42 232.96"><defs><style>.cls-1,.cls-2{fill:none;stroke:#30302d;stroke-miterlimit:10;stroke-width:3px;}.cls-2{stroke-dasharray:12;}</style></defs><g id="Layer_2" data-name="Layer 2"><g id="Layer_1-2" data-name="Layer 1"><path class="cls-1" d="M169.76,82.32A21.6,21.6,0,0,0,159.15,98a22.49,22.49,0,0,0-.22,3.06,21.57,21.57,0,0,0,2.91,10.83l-1.77,1.93a69.71,69.71,0,0,1-47.68,22.37h-.19c-10.77.72-9.81,12.83-9.65,22.77.15,10.36-1.85,20.35,7,25.72a64.38,64.38,0,0,0,14,5.73c-7.6,12.11-11.94,25.79-13.17,41a.13.13,0,0,1-.16.07c-23.27-10.85-48.84-7.85-75.22,0a.12.12,0,0,1-.14-.15,286.74,286.74,0,0,1,7.39-27.93,143.82,143.82,0,0,1,10.21-24.29c-11.46-3.22-19.55-8.46-27.64-17.86A96.68,96.68,0,0,1,96.93,1.51c38-.47,71.66,20.62,87.25,52.43C190.68,67.21,178.84,77.05,169.76,82.32Z"/><path class="cls-1" d="M68.77,169.21c3.86.69,26.63-1.3,33.69-2.41"/><path class="cls-1" d="M106.38,138.43c-3.66-4.09-10.28-15.63-22.47-23.84"/><path class="cls-1" d="M169.76,82.32l-.12.06a39.12,39.12,0,0,1-28.51,4.33l-30.56-7.06a17.48,17.48,0,0,0-18.43,7.27h0a17.45,17.45,0,0,0-3,9.77v9.67a9.86,9.86,0,0,1-9.87,9.86h0a9.85,9.85,0,0,1-7.4-3.35A28.09,28.09,0,0,0,68,110.11a16.56,16.56,0,0,0-24.09,11.76c-2.35,14.16,4.79,26.4,13.69,34.84l8,7.57c8.44,7.5,2.62,17.87-5.51,16.56-15.67-3-25.43-8.28-35.2-19.63A96.67,96.67,0,0,1,96.93,1.51c38-.47,71.66,20.62,87.25,52.43C190.67,67.21,178.84,77.05,169.76,82.32Z"/><path class="cls-2" d="M177.45,113.11a76.19,76.19,0,0,1,8,14.71c8,19.91,5.23,39.28-8.1,56l-.15.18c-10.47,12.59-25,19.52-40.84,19.52"/><path class="cls-1" d="M168.46,176.74c-10.62,12.76-26.47,18.64-44.85,13.67a64.38,64.38,0,0,1-14-5.73c-8.86-5.37-6.86-15.36-7-25.72-.16-9.94-1.12-22.05,9.65-22.77h.19a69.71,69.71,0,0,0,47.68-22.37l1.77-1.93h0S194.44,144.13,168.46,176.74Z"/><path class="cls-1" d="M122.89,155.87c15.61,1.31,29.41-5.55,37-18.08"/><path class="cls-1" d="M129.58,173.38c14.6,2.25,28.5-4.44,37-18.08"/></g></g></svg>