<svg xmlns="http://www.w3.org/2000/svg" viewBox="0 0 190.22 232.74"><defs><style>.cls-1,.cls-2{fill:none;stroke:#30302d;stroke-width:3px;}.cls-1{stroke-miterlimit:10;}.cls-2{stroke-linecap:round;stroke-linejoin:round;}</style></defs><g id="Layer_2" data-name="Layer 2"><g id="Layer_1-2" data-name="Layer 1"><path class="cls-1" d="M57.08,53.66H36A8.63,8.63,0,0,0,27.46,61l-1.33,9.06H66.94L65.6,61A8.61,8.61,0,0,0,57.08,53.66Z"/><rect class="cls-1" x="40.95" y="32.94" width="11.16" height="20.72"/><path class="cls-1" d="M103.31,14.27,99.69,23.6,66.94,27.54c0,3.35-2.72,5.4-6.07,5.4H35.09a4.53,4.53,0,0,1-4.53-4.53V24.18a9.91,9.91,0,0,1,9.91-9.91Z"/><line class="cls-1" x1="115.18" y1="18.76" x2="132.63" y2="18.76"/><line class="cls-1" x1="112.59" y1="11.07" x2="127.01" y2="1.24"/><line class="cls-1" x1="113.38" y1="25.92" x2="128.31" y2="34.94"/><path class="cls-1" d="M90.22,209.65a23.35,23.35,0,0,1-23.28,21.59H24.85A23.36,23.36,0,0,1,1.5,207.89V93.44A23.36,23.36,0,0,1,24.85,70.08H66.94a23.24,23.24,0,0,1,14.47,5,73.57,73.57,0,0,0,8.81,134.54Z"/><path class="cls-1" d="M90.29,93.44v11.34a9.24,9.24,0,0,0-2.76.18,9.48,9.48,0,0,0-3.15,17.23,39.78,39.78,0,0,0-4.24,11.11c-.39,0-.78.09-1.18.17a9.46,9.46,0,0,0,1.64,18.71,38.9,38.9,0,0,0,3,7.83l-17,17a60.47,60.47,0,0,1-12.22-36.54q0-2.92.27-5.77l.12-1.14c.05-.42.1-.83.16-1.25.09-.71.2-1.42.32-2.12.06-.37.13-.74.2-1.11s.14-.74.22-1.1.15-.73.24-1.1.17-.72.26-1.08c.17-.69.35-1.36.54-2,.12-.43.25-.86.38-1.28.2-.66.42-1.31.64-2a.16.16,0,0,0,0-.09c.24-.68.49-1.35.76-2q.8-2.05,1.74-4c.32-.66.65-1.32,1-2a57.74,57.74,0,0,1,3.34-5.62A61,61,0,0,1,89,85.66,23,23,0,0,1,90.29,93.44Z"/><path class="cls-1" d="M90.29,183.34v12.52A60.17,60.17,0,0,1,78.63,189L87,180.64A13.17,13.17,0,0,0,90.29,183.34Z"/><path class="cls-1" d="M65.35,194.54H1.5V106.78H49.78a73.61,73.61,0,0,0,15.57,87.76Z"/><path class="cls-1" d="M80.6,152.18a38.9,38.9,0,0,0,3,7.83l-17,17a60.47,60.47,0,0,1-12.22-36.54q0-2.92.27-5.77l.12-1.14c.05-.42.1-.83.16-1.25.09-.71.2-1.42.32-2.12.06-.37.13-.74.2-1.11s.14-.74.22-1.1.15-.73.24-1.1.17-.72.26-1.08c.17-.69.35-1.36.54-2,.12-.43.25-.86.38-1.28.2-.66.42-1.31.64-2a.16.16,0,0,0,0-.09c.24-.68.49-1.35.76-2,.53-1.36,1.12-2.71,1.74-4,.32-.66.65-1.32,1-2a62.05,62.05,0,0,1,3.34-5.62h19a9.47,9.47,0,0,0,.72,15.41,39.78,39.78,0,0,0-4.24,11.11c-.39,0-.78.09-1.18.17a9.46,9.46,0,0,0,1.64,18.71Z"/><path class="cls-1" d="M137.66,106l-54,54a38.9,38.9,0,0,1-3-7.83A9.46,9.46,0,0,1,79,133.47c.4-.08.79-.13,1.18-.17a39.78,39.78,0,0,1,4.24-11.11A9.48,9.48,0,0,1,87.53,105a9.24,9.24,0,0,1,2.76-.18,9.49,9.49,0,0,1,6.8,3.74,40.27,40.27,0,0,1,9.07-4.46A11.06,11.06,0,0,1,128,101.25a12.36,12.36,0,0,1,.22,1.7,39.75,39.75,0,0,1,9.05,3.33Z"/><path class="cls-1" d="M158.66,147a40.54,40.54,0,0,1-1.46,6.61,9.48,9.48,0,0,1-9.76,16.23,39.87,39.87,0,0,1-8.72,6.67,11.07,11.07,0,0,1-20.81,5.12A39.3,39.3,0,0,1,107.57,180a13.45,13.45,0,0,1-17.28,3.38,13.17,13.17,0,0,1-3.34-2.7l70.34-70.34a12.75,12.75,0,0,1,1.1,3.11,12.92,12.92,0,0,1-3.14,11.49,39.36,39.36,0,0,1,1.57,3.91A9.47,9.47,0,0,1,158.66,147Z"/><path class="cls-1" d="M151.7,92l-85,85a60.73,60.73,0,0,1,85-85Z"/><path class="cls-1" d="M175.89,140.45A60.71,60.71,0,0,1,78.63,189l85-85A60.46,60.46,0,0,1,175.89,140.45Z"/><path class="cls-1" d="M115.17,201.17A60.49,60.49,0,0,1,78.63,189l85-85a60.72,60.72,0,0,1-48.5,97.25Z"/><path class="cls-1" d="M115.18,66.92a73.54,73.54,0,1,0,73.54,73.53A73.28,73.28,0,0,0,115.18,66.92ZM66.66,177a60.73,60.73,0,0,1,85-85Z"/><line class="cls-2" x1="112.17" y1="115.25" x2="113.08" y2="109.86"/><line class="cls-2" x1="89.75" y1="136.37" x2="97.41" y2="133.98"/><line class="cls-2" x1="113.56" y1="170.22" x2="122.73" y2="167.06"/><line class="cls-2" x1="139.26" y1="144.88" x2="142.86" y2="153.89"/></g></g></svg>