<svg xmlns="http://www.w3.org/2000/svg" viewBox="0 0 227.25 233"><defs><style>.cls-1,.cls-2,.cls-3,.cls-4{fill:none;stroke:#30302d;}.cls-1,.cls-2{stroke-miterlimit:10;}.cls-1,.cls-3,.cls-4{stroke-width:3px;}.cls-2{stroke-width:2.78px;}.cls-3,.cls-4{stroke-linecap:round;stroke-linejoin:round;}.cls-4{stroke-dasharray:18.1 18.1;}.cls-5{fill:#30302d;}</style></defs><g id="Layer_2" data-name="Layer 2"><g id="Layer_1-2" data-name="Layer 1"><path class="cls-1" d="M152.48,123a40.87,40.87,0,0,0-8.87,25.48c0,6.8,3.7,16.83,8.87,27.54,3.07,6.35,6.66,12.93,10.31,19.23v31.05a5.16,5.16,0,0,1-5.15,5.16H87.24l-3.75-19.29L72,152.92H59V50a5.16,5.16,0,0,1,5.15-5.15h93.46A5.16,5.16,0,0,1,162.79,50v63.8A41,41,0,0,0,152.48,123Z"/><path class="cls-1" d="M152.48,123a40.87,40.87,0,0,0-8.87,25.48c0,6.8,3.7,16.83,8.87,27.54v33.39a2.75,2.75,0,0,1-2.76,2.76H83.49L72,152.92H69.33v-95a2.77,2.77,0,0,1,2.76-2.76h14.6L90,61.69h38.52l3.26-6.55h18a2.76,2.76,0,0,1,2.76,2.76Z"/><rect class="cls-2" x="99.23" y="217.31" width="23.35" height="8.73" rx="4.37"/><path class="cls-1" d="M184.69,169.46a20.94,20.94,0,1,1,20.93-20.94A20.94,20.94,0,0,1,184.69,169.46Z"/><path class="cls-1" d="M225.75,148.52c0,22.68-41.06,81.2-41.06,81.2s-11.2-15.95-21.9-34.43c-3.65-6.3-7.24-12.88-10.31-19.23-5.17-10.71-8.87-20.74-8.87-27.54a41.07,41.07,0,0,1,82.14,0Z"/><polygon class="cls-1" points="87.24 231.5 1.82 231.5 17.09 152.92 71.97 152.92 83.49 212.21 87.24 231.5"/><polyline class="cls-1" points="44.53 223.25 11.82 223.25 23.89 161.16"/><path class="cls-1" d="M43.34,125.7h0a15.15,15.15,0,0,1,15.15,15.15v12.07a0,0,0,0,1,0,0H28.19a0,0,0,0,1,0,0V140.84A15.15,15.15,0,0,1,43.34,125.7Z"/><path class="cls-3" d="M31.26,115.51a86.26,86.26,0,0,1-2.65-8.59"/><path class="cls-4" d="M26.14,89c0-.9-.05-1.8-.05-2.71a84.83,84.83,0,0,1,166-24.5"/><path class="cls-3" d="M194.27,70.61a84.28,84.28,0,0,1,1.18,8.92"/><polygon class="cls-5" points="184.11 71.01 195.18 75.83 206.33 71.2 195 97.44 184.11 71.01"/><path class="cls-5" d="M107.07,174.62V164.54c-5.79-.1-11.77-1.89-15.26-4.38l2.39-6.69a26.54,26.54,0,0,0,14.36,4.29c7.09,0,11.87-4.09,11.87-9.77,0-5.49-3.89-8.88-11.27-11.87-10.17-4-16.45-8.58-16.45-17.25,0-8.28,5.88-14.57,15.06-16.06V92.73H114v9.68a26.62,26.62,0,0,1,13,3.49l-2.5,6.58a24,24,0,0,0-12.56-3.39c-7.68,0-10.58,4.59-10.58,8.58,0,5.18,3.69,7.78,12.37,11.37,10.27,4.19,15.46,9.37,15.46,18.25,0,7.88-5.49,15.26-15.76,17v10.37Z"/></g></g></svg>