<svg xmlns="http://www.w3.org/2000/svg" viewBox="0 0 212.34 233"><defs><style>.cls-1{fill:none;stroke:#30302d;stroke-miterlimit:10;stroke-width:3px;}.cls-2{fill:#30302d;}</style></defs><g id="Layer_2" data-name="Layer 2"><g id="Layer_1-2" data-name="Layer 1"><line class="cls-1" x1="108.51" y1="6.1" x2="108.51" y2="54.5"/><line class="cls-1" x1="146.17" y1="6.1" x2="70.85" y2="6.1"/><line class="cls-1" x1="187.95" y1="108.43" x2="210.84" y2="108.43"/><line class="cls-1" x1="6.18" y1="108.43" x2="43.45" y2="108.43"/><line class="cls-1" x1="6.18" y1="70.77" x2="6.18" y2="119.38"/><line class="cls-1" x1="210.84" y1="95.08" x2="210.84" y2="146.09"/><path class="cls-1" d="M184.73,115.29c-7.42,14.79-15.52,30.5-13.71,46.94,1.12,10.16,6,19.49,8.43,29.4s2,21.78-5.64,28.57c-6.71,6-17.35,9.33-25.6,5.8a194.09,194.09,0,0,0-22.09-7.89C142.07,205.59,160,187.49,160,187.49a9.62,9.62,0,0,0-6.16-17,9.51,9.51,0,0,0-6.14,2.22l-8,7.39a11.21,11.21,0,0,1-16.19-2l-.1-.14a11.17,11.17,0,0,1-2-8.83l8.43-42.61a7.45,7.45,0,0,0-5.86-8.76,8.11,8.11,0,0,0-1.46-.14,7.44,7.44,0,0,0-7.3,6l-8.17,41.26a1,1,0,0,1-1.32.81h0a1.09,1.09,0,0,1-.79-1V114.25a7.61,7.61,0,0,0-7.31-7.7A7.45,7.45,0,0,0,90.08,114v50.15a1.07,1.07,0,0,1-.85,1l-.23.05a1.07,1.07,0,0,1-1.29-.84l-8.07-40.76a7.44,7.44,0,0,0-7.3-6,7.91,7.91,0,0,0-1.45.14A7.46,7.46,0,0,0,65,126.53L73.7,170.4a3,3,0,0,1-1.2,3,2.93,2.93,0,0,1-1.72.55A3,3,0,0,1,68,172l-8.78-25.08a7.45,7.45,0,1,0-14.07,4.92s15.21,44.34,20,57.61a273.92,273.92,0,0,0-44.07,3.23C8.38,214.59,7,203,8.67,194.51a168.87,168.87,0,0,1,19.74-52.68c5.89-10.14,13-20.11,14.55-31.73S40.2,87.52,35.6,77.19c-3.76-8.45-10.67-19-10.52-28.5.17-10.27,11.75-13.86,19.81-13.89,25.33-.08,35.47,8.14,57.56,16.29,9,3.32,17.38,8.19,26.74,10.13s18,3.84,29.72-1.42C173.1,53.44,179,51,187,55a14.72,14.72,0,0,1,6.89,7.78C200.8,80.47,192.94,98.93,184.73,115.29Z"/><path class="cls-1" d="M163.18,69.35c33.3-20.19,23.37,23.21,12.2,41.25"/><path class="cls-1" d="M45.15,72.93c-1-2.27-2.2-4.63-3.36-6.91-3-5.87-6.32-12.53-6.25-17.16-.66-10.11,35.07.27,47.51,5.62"/><path class="cls-1" d="M160,187.49s-17.94,18.1-33.89,30.62a107.13,107.13,0,0,1-12.44,8.66,36.08,36.08,0,0,1-4,2,33.06,33.06,0,0,1-8.61,2.38,34.08,34.08,0,0,1-4.55.31,30.92,30.92,0,0,1-3.35-.17,33.08,33.08,0,0,1-4.71-.8,30.93,30.93,0,0,1-3-.91,32,32,0,0,1-3.53-1.46,33.67,33.67,0,0,1-15.35-15.11c-.17-.34-.66-1.63-1.39-3.63-4.83-13.27-20-57.61-20-57.61a7.45,7.45,0,1,1,14.07-4.92L68,172a3,3,0,0,0,2.82,2,2.93,2.93,0,0,0,1.72-.55,3,3,0,0,0,1.2-3L65,126.53a7.46,7.46,0,0,1,5.87-8.76,7.91,7.91,0,0,1,1.45-.14,7.44,7.44,0,0,1,7.3,6l8.07,40.76a1.07,1.07,0,0,0,1.29.84l.23-.05a1.07,1.07,0,0,0,.85-1V114a7.45,7.45,0,0,1,7.59-7.45,7.61,7.61,0,0,1,7.31,7.7v50.42a1.09,1.09,0,0,0,.79,1h0a1,1,0,0,0,1.32-.81l8.17-41.26a7.44,7.44,0,0,1,7.3-6,8.11,8.11,0,0,1,1.46.14,7.45,7.45,0,0,1,5.86,8.76l-8.43,42.61a11.17,11.17,0,0,0,2,8.83l.1.14a11.21,11.21,0,0,0,16.19,2l8-7.39a9.63,9.63,0,0,1,13.55,1.25A9.62,9.62,0,0,1,160,187.49Z"/><rect class="cls-1" x="7.86" y="-0.43" width="14.28" height="37.17" rx="7.14" transform="translate(12.63 -5.28) rotate(33.78)"/><rect class="cls-1" x="188.02" y="14.9" width="9.18" height="23.9" rx="4.59" transform="translate(330.51 -110.28) rotate(127.23)"/><rect class="cls-1" x="197.2" y="177.23" width="10.84" height="28.23" rx="5.42" transform="translate(437.29 341.69) rotate(169.29)"/><circle class="cls-2" cx="140.97" cy="40.15" r="5.21"/><circle class="cls-2" cx="46.36" cy="17.15" r="3.07"/><circle class="cls-2" cx="190.02" cy="157.52" r="5.08"/><circle class="cls-2" cx="4.08" cy="140.69" r="4.03"/></g></g></svg>