<svg xmlns="http://www.w3.org/2000/svg" viewBox="0 0 234.73 213.44"><defs><style>.cls-1,.cls-2{fill:none;}.cls-1,.cls-2,.cls-3{stroke:#30302d;stroke-width:3px;}.cls-1,.cls-3{stroke-miterlimit:10;}.cls-2{stroke-linecap:round;stroke-linejoin:round;}.cls-3{fill:#82baff;}</style></defs><g id="Layer_2" data-name="Layer 2"><g id="Layer_1-2" data-name="Layer 1"><path class="cls-1" d="M162,102c0-10.91-19.75-41.8-19.75-41.8S122.45,91.13,122.45,102a19.75,19.75,0,0,0,39.5,0Z"/><path class="cls-1" d="M55.79,66.58a3.63,3.63,0,0,0-1.29,3.88,15.22,15.22,0,0,0-1.1,1.18A5,5,0,0,0,48,79.37a4.92,4.92,0,0,0,1.89,1.52,15.7,15.7,0,0,0,.31,3.68,6.37,6.37,0,0,0-.55.35,4.24,4.24,0,0,0,4.52,7.14,15.07,15.07,0,0,0,3,2.42,3.63,3.63,0,0,0,5.4,4.6,3.6,3.6,0,0,0,1.4-2.4,15.09,15.09,0,0,0,4.54-.33c.08.13.16.26.25.38A3.63,3.63,0,0,0,75,93.13a15,15,0,0,0,3.22-3.78,5.14,5.14,0,0,0,2-10.08,15.21,15.21,0,0,0-1.09-3.87A4.24,4.24,0,0,0,74,69a15.34,15.34,0,0,0-3.72-1.94,3.69,3.69,0,0,0-.73-2.41,3.64,3.64,0,0,0-6.49,1.65,15.9,15.9,0,0,0-2.53.56A3.64,3.64,0,0,0,55.79,66.58Z"/><line class="cls-2" x1="59.01" y1="77.72" x2="61.71" y2="77.69"/><line class="cls-2" x1="73.99" y1="79.58" x2="71.17" y2="79.58"/><line class="cls-2" x1="68.77" y1="86.55" x2="68.14" y2="89.76"/><line class="cls-2" x1="60.72" y1="85.1" x2="59.07" y2="87.39"/><line class="cls-2" x1="67.55" y1="74.3" x2="66.5" y2="72.03"/><path class="cls-1" d="M216.69,72.91a3.32,3.32,0,0,0-2.87,2.43,13.74,13.74,0,0,0-1.43.4,4.51,4.51,0,0,0-3.89-1.54,4.56,4.56,0,0,0-4.07,5,4.67,4.67,0,0,0,.77,2.1,13.91,13.91,0,0,0-1.51,3,4.16,4.16,0,0,0-.61,0,3.89,3.89,0,0,0,.15,7.75,14.45,14.45,0,0,0,1.21,3.34,3.34,3.34,0,1,0,4.3,5,14.08,14.08,0,0,0,3.72,1.91c0,.13,0,.27,0,.41a3.33,3.33,0,0,0,6.6.15,14,14,0,0,0,4.33-1.43,4.73,4.73,0,0,0,7.82-4,4.77,4.77,0,0,0-1.4-2.9,13.73,13.73,0,0,0,1-3.55,3.89,3.89,0,0,0-1-7.47,13.65,13.65,0,0,0-2-3.3,3.33,3.33,0,0,0-5.3-4,13.26,13.26,0,0,0-2.25-.77A3.33,3.33,0,0,0,216.69,72.91Z"/><line class="cls-2" x1="210.9" y1="83.18" x2="213.03" y2="84.44"/><line class="cls-2" x1="223.35" y1="92.76" x2="221.33" y2="94.98"/><line class="cls-2" x1="212.72" y1="93.79" x2="210.34" y2="94.8"/><line class="cls-2" x1="222.24" y1="84.57" x2="222.5" y2="82.29"/><path class="cls-1" d="M94.58,4A4.3,4.3,0,0,0,90.72,7a16.65,16.65,0,0,0-1.86.41,5.86,5.86,0,0,0-10.47,3.9A6,6,0,0,0,79.22,14a18,18,0,0,0-2.15,3.8,5.09,5.09,0,0,0-.78,0,5,5,0,0,0-.35,10,18.5,18.5,0,0,0,1.32,4.38,4.29,4.29,0,0,0,2.2,8.08,4.21,4.21,0,0,0,3-1.4,18,18,0,0,0,4.65,2.71,4.87,4.87,0,0,0,0,.54,4.29,4.29,0,0,0,8.48.65,18.37,18.37,0,0,0,5.66-1.53,6.08,6.08,0,0,0,8.73-8.47,17.82,17.82,0,0,0,1.52-4.5,5,5,0,0,0-.75-9.67,18.13,18.13,0,0,0-2.34-4.39,4.29,4.29,0,0,0-6.53-5.55A17.65,17.65,0,0,0,99,7.47,4.29,4.29,0,0,0,94.58,4Z"/><line class="cls-2" x1="90.28" y1="17.03" x2="92.93" y2="18.81"/><line class="cls-2" x1="103.65" y1="28.86" x2="100.89" y2="26.97"/><line class="cls-2" x1="93.9" y1="32.16" x2="91.15" y2="34.87"/><line class="cls-2" x1="87.02" y1="25.38" x2="83.88" y2="26.52"/><line class="cls-2" x1="100.9" y1="19.4" x2="101.39" y2="16.49"/><path class="cls-3" d="M114,45.78a33.77,33.77,0,0,1,11.73,13.88"/><path class="cls-1" d="M191.63,1.51a4.3,4.3,0,0,0-3.83,3,16.08,16.08,0,0,0-1.85.44,5.86,5.86,0,0,0-9.55,6.76,17.85,17.85,0,0,0-2.11,3.83,6.77,6.77,0,0,0-.78,0,5,5,0,0,0-.23,10,18,18,0,0,0,1.38,4.36,4.3,4.3,0,1,0,5.25,6.63,18.37,18.37,0,0,0,4.69,2.65,4.82,4.82,0,0,0,0,.54,4.29,4.29,0,0,0,8.49.53,17.72,17.72,0,0,0,5.64-1.6A6.08,6.08,0,0,0,207.35,30a18.38,18.38,0,0,0,1.46-4.52,5,5,0,0,0-.88-9.66,17.85,17.85,0,0,0-2.39-4.35,4.29,4.29,0,0,0-3.69-6.87A4.31,4.31,0,0,0,198.94,6a18.58,18.58,0,0,0-2.86-1.1A4.28,4.28,0,0,0,191.63,1.51Z"/><line class="cls-2" x1="187.49" y1="14.57" x2="190.16" y2="16.31"/><line class="cls-2" x1="201" y1="26.22" x2="198.23" y2="24.37"/><line class="cls-2" x1="191.3" y1="29.65" x2="188.58" y2="32.4"/><line class="cls-2" x1="184.33" y1="22.96" x2="181.21" y2="24.13"/><line class="cls-2" x1="198.14" y1="16.81" x2="198.59" y2="13.89"/><path class="cls-3" d="M169.34,41.41A33.75,33.75,0,0,0,158.5,55.35"/><path class="cls-3" d="M190.6,92.87a37.34,37.34,0,0,0-19.16,9.54"/><path class="cls-3" d="M93.84,87.19a44.56,44.56,0,0,1,18.56,5.48"/><path class="cls-1" d="M207,133.13a10.86,10.86,0,0,0-2.79-4.55,11.49,11.49,0,0,0-8-3.33,11.34,11.34,0,0,0-4.8,1.08l-39.21,21.86-35.28-17.83-.07,0-4.24-2.14a29.14,29.14,0,0,0-12.9-2.7c-6,0-12.2,1.3-18.23,2.54-2.91.61-33.14,10.73-43.91,14.34l16.23,50.74,17.34-5.82a62.34,62.34,0,0,1,15.75-3.13c.81,0,1.56-.08,2.21-.08a64.16,64.16,0,0,1,8.3.55l11.8,1.58a165,165,0,0,0,21.44,1.71h0c17,0,29.55-4.38,39.54-13.8L204,144.92A11.44,11.44,0,0,0,207,133.13Z"/><path class="cls-1" d="M97.12,153.58,142,167.86a11.52,11.52,0,0,0,3.47.54,11.42,11.42,0,0,0,11-8.58,11.42,11.42,0,0,0-3.8-11.58"/><polygon class="cls-1" points="56.24 200.78 29.44 211.5 1.98 145.91 34.6 133.12 37.56 142.38 53.79 193.12 56.24 200.78"/><circle class="cls-1" cx="26.14" cy="150.97" r="5.12"/></g></g></svg>